<?xml version='1.0' encoding='UTF-8'?>
<svg width="180" height="180" viewBox="0 0 180 180" xmlns="http://www.w3.org/2000/svg">
  <!-- CONSTRUKTR blue background with rounded corners -->
  <rect width="180" height="180" rx="28" fill="#0243D5"/>
  
  <!-- Shield outline -->
  <path d="M90 17.58 L135 35.16 L135 105.47 Q135 131.84 90 158.20 Q45 131.84 45 105.47 L45 35.16 Z" 
        fill="#ffffff" stroke="#e5e5e5" stroke-width="1.41"/>
  
  <!-- Inner blue area -->
  <path d="M90 26.37 L126.21 40.43 L126.21 100.20 Q126.21 121.29 90 144.14 Q53.79 121.29 53.79 100.20 L53.79 40.43 Z" 
        fill="#0243D5" stroke="#ffffff" stroke-width="1.05"/>
  
  <!-- Circuit pattern -->
  <g stroke="#ffffff" stroke-width="1.41" fill="none">
    <!-- Horizontal lines -->
    <line x1="66.80" y1="73.83" x2="113.20" y2="73.83"/>
    <line x1="70.31" y1="84.38" x2="109.69" y2="84.38"/>
    <line x1="73.83" y1="94.92" x2="106.17" y2="94.92"/>
    
    <!-- Vertical connections -->
    <line x1="90" y1="63.28" x2="90" y2="105.47"/>
    <line x1="73.83" y1="77.34" x2="73.83" y2="91.41"/>
    <line x1="106.17" y1="77.34" x2="106.17" y2="91.41"/>
  </g>
  
  <!-- Circuit nodes -->
  <g fill="#ffffff">
    <circle cx="66.80" cy="73.83" r="2.11"/>
    <circle cx="113.20" cy="73.83" r="2.11"/>
    <circle cx="90" cy="84.38" r="2.81"/>
    <circle cx="73.83" cy="94.92" r="2.11"/>
    <circle cx="106.17" cy="94.92" r="2.11"/>
  </g>
  
  <!-- Central C -->
  <text x="90" y="89.65" font-family="Arial, sans-serif" font-size="28.13" font-weight="bold" 
        fill="#ffffff" text-anchor="middle">C</text>
</svg>