<?xml version='1.0' encoding='UTF-8'?>
<svg width="32" height="32" viewBox="0 0 32 32" xmlns="http://www.w3.org/2000/svg">
  <!-- Shield outline with correct CONSTRUKTR blue -->
  <path d="M16 3 L24 6 L24 18.75 Q24 23.44 16 28.13 Q8 23.44 8 18.75 L8 6 Z" 
        fill="#0243D5" stroke="#1a5490" stroke-width="0.25"/>
  
  <!-- Inner white area -->
  <path d="M16 4.69 L22.38 7.19 L22.38 17.81 Q22.38 21.56 16 25.63 Q9.63 21.56 9.63 17.81 L9.63 7.19 Z" 
        fill="#ffffff" stroke="#0243D5" stroke-width="0.19"/>
  
  <!-- Circuit pattern -->
  <g stroke="#0243D5" stroke-width="0.25" fill="none">
    <!-- Horizontal lines -->
    <line x1="11.88" y1="13.13" x2="20.13" y2="13.13"/>
    <line x1="12.5" y1="15" x2="19.5" y2="15"/>
    <line x1="13.13" y1="16.88" x2="18.88" y2="16.88"/>
    
    <!-- Vertical connections -->
    <line x1="16" y1="11.25" x2="16" y2="18.75"/>
    <line x1="13.13" y1="13.75" x2="13.13" y2="16.25"/>
    <line x1="18.88" y1="13.75" x2="18.88" y2="16.25"/>
  </g>
  
  <!-- Circuit nodes -->
  <g fill="#0243D5">
    <circle cx="11.88" cy="13.13" r="0.38"/>
    <circle cx="20.13" cy="13.13" r="0.38"/>
    <circle cx="16" cy="15" r="0.5"/>
    <circle cx="13.13" cy="16.88" r="0.38"/>
    <circle cx="18.88" cy="16.88" r="0.38"/>
  </g>
  
  <!-- Central C -->
  <text x="16" y="16.5" font-family="Arial, sans-serif" font-size="5" font-weight="bold" 
        fill="#0243D5" text-anchor="middle">C</text>
</svg>